HIERARCHY
ROOT Hips
{
	OFFSET 0.000000 0.000000 0.000000
	CHANNELS 6 Xposition Yposition Zposition Xrotation Yrotation Zrotation
	JOINT Thigh.L
	{
		OFFSET 0.055848 0.027124 -0.095942
		CHANNELS 3 Xrotation Yrotation Zrotation
		JOINT Shin.L
		{
			OFFSET 0.059779 0.006768 -0.411267
			CHANNELS 3 Xrotation Yrotation Zrotation
			JOINT Foot.L
			{
				OFFSET -0.042525 0.032420 -0.436603
				CHANNELS 3 Xrotation Yrotation Zrotation
				JOINT Toe.L
				{
					OFFSET 0.048534 -0.126689 -0.064076
					CHANNELS 3 Xrotation Yrotation Zrotation
					End Site
					{
						OFFSET 0.000000 0.050000 0.000000
					}
				}
			}
		}
	}
	JOINT Thigh.R
	{
		OFFSET -0.060957 0.021415 -0.108613
		CHANNELS 3 Xrotation Yrotation Zrotation
		JOINT Shin.R
		{
			OFFSET -0.048784 0.014861 -0.392588
			CHANNELS 3 Xrotation Yrotation Zrotation
			JOINT Foot.R
			{
				OFFSET 0.014244 0.020477 -0.445603
				CHANNELS 3 Xrotation Yrotation Zrotation
				JOINT Toe.R
				{
					OFFSET -0.039832 -0.127509 -0.063951
					CHANNELS 3 Xrotation Yrotation Zrotation
					End Site
					{
						OFFSET 0.000000 0.050000 0.000000
					}
				}
			}
		}
	}
	JOINT Spine
	{
		OFFSET -0.002662 0.027661 0.115237
		CHANNELS 3 Xrotation Yrotation Zrotation
		JOINT Spine.2
		{
			OFFSET 0.009337 0.006489 0.143765
			CHANNELS 3 Xrotation Yrotation Zrotation
			JOINT Chest
			{
				OFFSET -0.011074 -0.024016 0.057105
				CHANNELS 3 Xrotation Yrotation Zrotation
				JOINT Neck
				{
					OFFSET -0.012402 0.026207 0.171548
					CHANNELS 3 Xrotation Yrotation Zrotation
					JOINT Head
					{
						OFFSET 0.025675 -0.021011 0.169714
						CHANNELS 3 Xrotation Yrotation Zrotation
						End Site
						{
							OFFSET 0.000000 0.050000 0.000000
						}
					}
				}
				JOINT Clavicle.L
				{
					OFFSET 0.047925 0.004506 0.088375
					CHANNELS 3 Xrotation Yrotation Zrotation
					JOINT UpperArm.L
					{
						OFFSET 0.128516 0.014210 0.058973
						CHANNELS 3 Xrotation Yrotation Zrotation
						JOINT ForeArm.L
						{
							OFFSET 0.269607 0.043581 -0.075554
							CHANNELS 3 Xrotation Yrotation Zrotation
							JOINT Hand.L
							{
								OFFSET 0.272995 0.000651 0.022765
								CHANNELS 3 Xrotation Yrotation Zrotation
								JOINT Thumb1.L
								{
									OFFSET 0.154585 0.000285 0.009972
									CHANNELS 3 Xrotation Yrotation Zrotation
									JOINT Thumb2.L
									{
										OFFSET 0.029896 0.000071 0.002493
										CHANNELS 3 Xrotation Yrotation Zrotation
										End Site
										{
											OFFSET 0.024913 0.000059 0.002078
										}
									}
								}
								JOINT Index1.L
								{
									OFFSET 0.137585 0.000285 0.009972
									CHANNELS 3 Xrotation Yrotation Zrotation
									JOINT Index2.L
									{
										OFFSET 0.029896 0.000071 0.002493
										CHANNELS 3 Xrotation Yrotation Zrotation
										JOINT Index3.L
										{
											OFFSET 0.021924 0.000052 0.001828
											CHANNELS 3 Xrotation Yrotation Zrotation
											End Site
											{
												OFFSET 0.017938 0.000043 0.001496
											}
										}
									}
								}
								JOINT Middle1.L
								{
									OFFSET 0.119585 0.000285 0.009972
									CHANNELS 3 Xrotation Yrotation Zrotation
									JOINT Middle2.L
									{
										OFFSET 0.030893 0.000074 0.002576
										CHANNELS 3 Xrotation Yrotation Zrotation
										JOINT Middle3.L
										{
											OFFSET 0.021924 0.000052 0.001828
											CHANNELS 3 Xrotation Yrotation Zrotation
											End Site
											{
												OFFSET 0.017938 0.000043 0.001496
											}
										}
									}
								}
								JOINT Ring1.L
								{
									OFFSET 0.101585 0.000285 0.009972
									CHANNELS 3 Xrotation Yrotation Zrotation
									JOINT Ring2.L
									{
										OFFSET 0.028900 0.000069 0.002410
										CHANNELS 3 Xrotation Yrotation Zrotation
										JOINT Ring3.L
										{
											OFFSET 0.019931 0.000048 0.001662
											CHANNELS 3 Xrotation Yrotation Zrotation
											End Site
											{
												OFFSET 0.016941 0.000040 0.001413
											}
										}
									}
								}
								JOINT Pinky1.L
								{
									OFFSET 0.085585 0.000285 0.009972
									CHANNELS 3 Xrotation Yrotation Zrotation
									JOINT Pinky2.L
									{
										OFFSET 0.023917 0.000057 0.001994
										CHANNELS 3 Xrotation Yrotation Zrotation
										JOINT Pinky3.L
										{
											OFFSET 0.016941 0.000040 0.001413
											CHANNELS 3 Xrotation Yrotation Zrotation
											End Site
											{
												OFFSET 0.013952 0.000033 0.001163
											}
										}
									}
								}
							}
						}
					}
				}
				JOINT Clavicle.R
				{
					OFFSET -0.049039 0.010709 0.087505
					CHANNELS 3 Xrotation Yrotation Zrotation
					JOINT UpperArm.R
					{
						OFFSET -0.111421 0.010775 0.055026
						CHANNELS 3 Xrotation Yrotation Zrotation
						JOINT ForeArm.R
						{
							OFFSET -0.288098 0.027961 -0.039361
							CHANNELS 3 Xrotation Yrotation Zrotation
							JOINT Hand.R
							{
								OFFSET -0.269315 0.014185 -0.005354
								CHANNELS 3 Xrotation Yrotation Zrotation
								JOINT Thumb1.R
								{
									OFFSET -0.154810 0.006310 -0.002382
									CHANNELS 3 Xrotation Yrotation Zrotation
									JOINT Thumb2.R
									{
										OFFSET -0.029953 0.001578 -0.000595
										CHANNELS 3 Xrotation Yrotation Zrotation
										End Site
										{
											OFFSET -0.024960 0.001315 -0.000496
										}
									}
								}
								JOINT Index1.R
								{
									OFFSET -0.137810 0.006310 -0.002382
									CHANNELS 3 Xrotation Yrotation Zrotation
									JOINT Index2.R
									{
										OFFSET -0.029953 0.001578 -0.000595
										CHANNELS 3 Xrotation Yrotation Zrotation
										JOINT Index3.R
										{
											OFFSET -0.021965 0.001157 -0.000437
											CHANNELS 3 Xrotation Yrotation Zrotation
											End Site
											{
												OFFSET -0.017972 0.000947 -0.000357
											}
										}
									}
								}
								JOINT Middle1.R
								{
									OFFSET -0.119810 0.006310 -0.002382
									CHANNELS 3 Xrotation Yrotation Zrotation
									JOINT Middle2.R
									{
										OFFSET -0.030951 0.001630 -0.000615
										CHANNELS 3 Xrotation Yrotation Zrotation
										JOINT Middle3.R
										{
											OFFSET -0.021965 0.001157 -0.000437
											CHANNELS 3 Xrotation Yrotation Zrotation
											End Site
											{
												OFFSET -0.017972 0.000947 -0.000357
											}
										}
									}
								}
								JOINT Ring1.R
								{
									OFFSET -0.101810 0.006310 -0.002382
									CHANNELS 3 Xrotation Yrotation Zrotation
									JOINT Ring2.R
									{
										OFFSET -0.028954 0.001525 -0.000576
										CHANNELS 3 Xrotation Yrotation Zrotation
										JOINT Ring3.R
										{
											OFFSET -0.019968 0.001052 -0.000397
											CHANNELS 3 Xrotation Yrotation Zrotation
											End Site
											{
												OFFSET -0.016973 0.000894 -0.000337
											}
										}
									}
								}
								JOINT Pinky1.R
								{
									OFFSET -0.085810 0.006310 -0.002382
									CHANNELS 3 Xrotation Yrotation Zrotation
									JOINT Pinky2.R
									{
										OFFSET -0.023962 0.001262 -0.000476
										CHANNELS 3 Xrotation Yrotation Zrotation
										JOINT Pinky3.R
										{
											OFFSET -0.016973 0.000894 -0.000337
											CHANNELS 3 Xrotation Yrotation Zrotation
											End Site
											{
												OFFSET -0.013978 0.000736 -0.000278
											}
										}
									}
								}
							}
						}
					}
				}
			}
		}
	}
}
MOTION
Frames: 6
Frame Time: 0.04166667
-0.000705 -0.038448 1.018654 -4.185784 0.529238 -0.178573 4.861355 -3.226467 3.155491 2.354544 2.243021 -8.913953 -8.557295 -1.725690 9.118331 -0.650660 -2.071900 -1.284491 1.170674 3.445847 -3.268695 7.718833 0.170528 4.706114 -9.528795 -2.307126 -5.530620 -0.324691 -1.282111 0.690092 3.376635 1.087854 2.698134 0.947983 -0.331538 -1.696408 2.507452 0.442978 0.169610 5.482067 0.730064 1.903811 3.102331 -1.351102 -0.353098 -0.701897 21.739214 -2.327037 25.234402 43.534530 -25.283713 18.747953 -1.782066 -24.096421 0.633271 0.851475 -9.311594 0.000000 0.000000 0.000000 0.000000 0.000000 0.000000 0.000000 0.000000 0.000000 0.000000 0.000000 0.000000 0.000000 0.000000 0.000000 0.000000 0.000000 0.000000 0.000000 0.000000 0.000000 0.000000 0.000000 0.000000 0.000000 0.000000 0.000000 0.000000 0.000000 0.000000 0.000000 0.000000 0.000000 0.000000 0.000000 0.000000 0.000000 0.000000 0.000000 0.000000 0.000000 0.000000 1.051498 -21.046194 7.600563 27.876534 -45.664742 27.755806 11.298339 1.327350 26.019602 -0.742862 -1.880041 6.150818 0.000000 0.000000 0.000000 0.000000 0.000000 0.000000 0.000000 0.000000 0.000000 0.000000 0.000000 0.000000 0.000000 0.000000 0.000000 0.000000 0.000000 0.000000 0.000000 0.000000 0.000000 0.000000 0.000000 0.000000 0.000000 0.000000 0.000000 0.000000 0.000000 0.000000 0.000000 0.000000 0.000000 0.000000 0.000000 0.000000 0.000000 0.000000 0.000000 0.000000 0.000000 0.000000
-0.001069 -0.038690 1.018669 -4.195464 0.542097 -0.178844 4.909807 -3.207673 3.139192 2.259043 2.224077 -8.968812 -8.536698 -1.748991 9.169589 -0.662001 -2.092933 -1.292942 1.141027 3.446324 -3.219256 7.771967 0.180688 4.792036 -9.494915 -2.267927 -5.585177 -0.309551 -1.305716 0.694469 3.321733 1.075617 2.681355 0.954209 -0.339658 -1.700868 2.496121 0.450450 0.161068 5.507893 0.714617 1.862098 3.138388 -1.338558 -0.473116 -0.682199 21.703696 -2.301920 25.279006 43.578787 -25.388958 18.825366 -1.777108 -24.014550 0.743073 0.917796 -9.279198 0.000000 0.000000 0.000000 0.000000 0.000000 0.000000 0.000000 0.000000 0.000000 0.000000 0.000000 0.000000 0.000000 0.000000 0.000000 0.000000 0.000000 0.000000 0.000000 0.000000 0.000000 0.000000 0.000000 0.000000 0.000000 0.000000 0.000000 0.000000 0.000000 0.000000 0.000000 0.000000 0.000000 0.000000 0.000000 0.000000 0.000000 0.000000 0.000000 0.000000 0.000000 0.000000 1.025532 -20.985797 7.587753 27.921972 -45.704756 27.839616 11.334910 1.322788 25.905111 -0.772056 -1.906916 6.095211 0.000000 0.000000 0.000000 0.000000 0.000000 0.000000 0.000000 0.000000 0.000000 0.000000 0.000000 0.000000 0.000000 0.000000 0.000000 0.000000 0.000000 0.000000 0.000000 0.000000 0.000000 0.000000 0.000000 0.000000 0.000000 0.000000 0.000000 0.000000 0.000000 0.000000 0.000000 0.000000 0.000000 0.000000 0.000000 0.000000 0.000000 0.000000 0.000000 0.000000 0.000000 0.000000
-0.000993 -0.038472 1.018676 -4.192063 0.551933 -0.147270 4.922330 -3.228329 3.156303 2.242853 2.213208 -8.976586 -8.545205 -1.709781 9.143983 -0.662472 -2.097188 -1.298895 1.134134 3.432702 -3.217421 7.815314 0.167245 4.780420 -9.502795 -2.237854 -5.571703 -0.311502 -1.311926 0.700127 3.302434 1.043148 2.676712 0.988876 -0.366832 -1.703244 2.463570 0.458690 0.159078 5.525232 0.710007 1.817196 3.131402 -1.319672 -0.563823 -0.658163 21.691014 -2.305270 25.310322 43.596149 -25.416503 18.850510 -1.791663 -24.007955 0.868786 0.919742 -9.259668 0.000000 0.000000 0.000000 0.000000 0.000000 0.000000 0.000000 0.000000 0.000000 0.000000 0.000000 0.000000 0.000000 0.000000 0.000000 0.000000 0.000000 0.000000 0.000000 0.000000 0.000000 0.000000 0.000000 0.000000 0.000000 0.000000 0.000000 0.000000 0.000000 0.000000 0.000000 0.000000 0.000000 0.000000 0.000000 0.000000 0.000000 0.000000 0.000000 0.000000 0.000000 0.000000 1.047169 -20.983211 7.586268 27.908916 -45.705440 27.815195 11.370612 1.334651 25.908487 -0.720768 -1.838904 6.088585 0.000000 0.000000 0.000000 0.000000 0.000000 0.000000 0.000000 0.000000 0.000000 0.000000 0.000000 0.000000 0.000000 0.000000 0.000000 0.000000 0.000000 0.000000 0.000000 0.000000 0.000000 0.000000 0.000000 0.000000 0.000000 0.000000 0.000000 0.000000 0.000000 0.000000 0.000000 0.000000 0.000000 0.000000 0.000000 0.000000 0.000000 0.000000 0.000000 0.000000 0.000000 0.000000
-0.001184 -0.037982 1.018671 -4.170566 0.575533 -0.157385 4.930370 -3.257891 3.161865 2.227622 2.231109 -8.989528 -8.545472 -1.716405 9.171648 -0.662934 -2.095062 -1.303895 1.131116 3.421140 -3.196548 7.823343 0.145403 4.810517 -9.502015 -2.216455 -5.581353 -0.328331 -1.317888 0.704679 3.281025 1.038381 2.664674 0.996927 -0.390345 -1.708542 2.455364 0.472798 0.156688 5.503040 0.690201 1.802357 3.113691 -1.319555 -0.636622 -0.654010 21.691315 -2.293245 25.375302 43.587514 -25.408015 18.890976 -1.829252 -24.043679 0.886801 0.888166 -9.230951 0.000000 0.000000 0.000000 0.000000 0.000000 0.000000 0.000000 0.000000 0.000000 0.000000 0.000000 0.000000 0.000000 0.000000 0.000000 0.000000 0.000000 0.000000 0.000000 0.000000 0.000000 0.000000 0.000000 0.000000 0.000000 0.000000 0.000000 0.000000 0.000000 0.000000 0.000000 0.000000 0.000000 0.000000 0.000000 0.000000 0.000000 0.000000 0.000000 0.000000 0.000000 0.000000 1.047857 -21.006503 7.599286 27.944901 -45.699066 27.810533 11.389481 1.368516 25.887491 -0.729030 -1.777527 6.067032 0.000000 0.000000 0.000000 0.000000 0.000000 0.000000 0.000000 0.000000 0.000000 0.000000 0.000000 0.000000 0.000000 0.000000 0.000000 0.000000 0.000000 0.000000 0.000000 0.000000 0.000000 0.000000 0.000000 0.000000 0.000000 0.000000 0.000000 0.000000 0.000000 0.000000 0.000000 0.000000 0.000000 0.000000 0.000000 0.000000 0.000000 0.000000 0.000000 0.000000 0.000000 0.000000
-0.001346 -0.037705 1.018672 -4.153795 0.592101 -0.126204 4.939268 -3.292075 3.182861 2.188199 2.263370 -8.971850 -8.531038 -1.705644 9.139991 -0.668386 -2.089914 -1.304971 1.111467 3.415532 -3.175587 7.861272 0.120744 4.816839 -9.498649 -2.183094 -5.603041 -0.342771 -1.329874 0.705648 3.256705 1.042786 2.644507 1.008459 -0.418150 -1.710104 2.431101 0.480040 0.154574 5.500358 0.670739 1.775763 3.120196 -1.339857 -0.682142 -0.640280 21.705084 -2.297570 25.399640 43.567819 -25.375765 18.955596 -1.856115 -24.105904 0.963506 0.893671 -9.206439 0.000000 0.000000 0.000000 0.000000 0.000000 0.000000 0.000000 0.000000 0.000000 0.000000 0.000000 0.000000 0.000000 0.000000 0.000000 0.000000 0.000000 0.000000 0.000000 0.000000 0.000000 0.000000 0.000000 0.000000 0.000000 0.000000 0.000000 0.000000 0.000000 0.000000 0.000000 0.000000 0.000000 0.000000 0.000000 0.000000 0.000000 0.000000 0.000000 0.000000 0.000000 0.000000 1.062807 -21.028999 7.606596 27.940905 -45.684408 27.780628 11.406964 1.380289 25.861056 -0.667972 -1.797158 6.032413 0.000000 0.000000 0.000000 0.000000 0.000000 0.000000 0.000000 0.000000 0.000000 0.000000 0.000000 0.000000 0.000000 0.000000 0.000000 0.000000 0.000000 0.000000 0.000000 0.000000 0.000000 0.000000 0.000000 0.000000 0.000000 0.000000 0.000000 0.000000 0.000000 0.000000 0.000000 0.000000 0.000000 0.000000 0.000000 0.000000 0.000000 0.000000 0.000000 0.000000 0.000000 0.000000
-0.001575 -0.037522 1.018679 -4.144088 0.611911 -0.111495 4.939214 -3.322283 3.174274 2.179784 2.290232 -8.980881 -8.521767 -1.716135 9.145454 -0.672041 -2.092398 -1.301657 1.073816 3.408728 -3.136879 7.935758 0.103123 4.849446 -9.494812 -2.147462 -5.634157 -0.346763 -1.331654 0.707190 3.238222 1.053068 2.627195 1.033809 -0.436102 -1.723980 2.396167 0.485147 0.153124 5.555623 0.668343 1.739057 3.119375 -1.365997 -0.706475 -0.627877 21.692544 -2.303928 25.434247 43.574194 -25.394136 19.025026 -1.869626 -24.083471 0.976798 0.896281 -9.189153 0.000000 0.000000 0.000000 0.000000 0.000000 0.000000 0.000000 0.000000 0.000000 0.000000 0.000000 0.000000 0.000000 0.000000 0.000000 0.000000 0.000000 0.000000 0.000000 0.000000 0.000000 0.000000 0.000000 0.000000 0.000000 0.000000 0.000000 0.000000 0.000000 0.000000 0.000000 0.000000 0.000000 0.000000 0.000000 0.000000 0.000000 0.000000 0.000000 0.000000 0.000000 0.000000 1.082481 -21.023244 7.623140 27.946655 -45.695443 27.803776 11.496410 1.413773 25.792381 -0.630620 -1.816654 5.984529 0.000000 0.000000 0.000000 0.000000 0.000000 0.000000 0.000000 0.000000 0.000000 0.000000 0.000000 0.000000 0.000000 0.000000 0.000000 0.000000 0.000000 0.000000 0.000000 0.000000 0.000000 0.000000 0.000000 0.000000 0.000000 0.000000 0.000000 0.000000 0.000000 0.000000 0.000000 0.000000 0.000000 0.000000 0.000000 0.000000 0.000000 0.000000 0.000000 0.000000 0.000000 0.000000
